<?xml version="1.0" encoding="utf-8"?>
<!-- Generator: Adobe Illustrator 15.0.0, SVG Export Plug-In . SVG Version: 6.00 Build 0)  -->
<!DOCTYPE svg PUBLIC "-//W3C//DTD SVG 1.1//EN" "http://www.w3.org/Graphics/SVG/1.1/DTD/svg11.dtd">
<svg version="1.1" id="Layer_1" xmlns="http://www.w3.org/2000/svg" xmlns:xlink="http://www.w3.org/1999/xlink" x="0px" y="0px"
	 width="80px" height="30px" viewBox="0 0 80 30" enable-background="new 0 0 80 30" xml:space="preserve">
<rect x="23.453" y="6.981" fill="#FFFFFF" width="31.75" height="16.125"/>
<g id="g5559">
	<path id="path13824" fill="none" stroke="#000000" stroke-linecap="round" stroke-linejoin="round" d="M35.508,13.221v3.796"/>
	<path id="path13826" fill="none" stroke="#000000" stroke-linecap="round" stroke-linejoin="round" d="M37.418,15.12h-3.819"/>
	<path id="path13828" fill="none" stroke="#000000" stroke-linecap="round" stroke-linejoin="round" d="M43.148,17.018v-3.796"/>
	
		<path id="path5527" sodipodi:type="arc" sodipodi:cx="251.48755" sodipodi:cy="76.863258" sodipodi:rx="10.88965" sodipodi:ry="10.953495" fill="none" stroke="#000000" stroke-linecap="round" stroke-linejoin="round" d="
		M39.328,7.404c4.245-0.003,7.688,3.415,7.69,7.634s-3.436,7.643-7.681,7.645c-0.002,0-0.006,0-0.009,0
		c-4.244,0.004-7.686-3.416-7.689-7.635c-0.002-4.22,3.436-7.643,7.68-7.645C39.322,7.404,39.325,7.404,39.328,7.404z"/>
	<path id="path5529" fill="none" stroke="#000000" stroke-linecap="round" stroke-linejoin="round" d="M22.14,15.044h9.503"/>
	<path id="path5531" fill="none" stroke="#000000" stroke-linecap="round" stroke-linejoin="round" d="M47.012,15.044h9.504"/>
</g>
<circle fill="none" stroke="#000000" stroke-linecap="round" stroke-linejoin="round" cx="39.328" cy="15.044" r="7.507"/>
</svg>
